<?xml version="1.0" encoding="utf-8"?>
<!-- Generator: Adobe Illustrator 27.1.1, SVG Export Plug-In . SVG Version: 6.00 Build 0)  -->
<svg version="1.1" id="Layer_1" xmlns="http://www.w3.org/2000/svg" xmlns:xlink="http://www.w3.org/1999/xlink" x="0px" y="0px"
	 viewBox="0 0 792 612" style="enable-background:new 0 0 792 612;" xml:space="preserve">
<style type="text/css">
	.st0{fill:#A8AAAD;}
	.st1{fill:#595A5C;}
</style>
<path class="st0" d="M723.49,208.56c-1.44-3.69-3.84-7.28-7.15-9.54c-1.13-0.77-2.51-1.53-3.92-1.86c-0.85-0.75-1.83-1.35-2.87-1.67
	c-0.48-0.82-0.98-1.63-1.49-2.43c0.38-1.6-0.64-3.64-2.44-3.92c-15.03-2.33-30.46-1.43-45.11,2.53c-0.37-0.26-0.82-0.44-1.37-0.46
	c-11.17-0.44-22.34-0.88-33.5-1.32c-10.75-0.42-21.81-1.07-32.34,1.64c-2.63,0.68-5.12,1.63-7.41,3.12
	c-2.37,1.55-4.02,3.73-5.49,6.1c-0.85,1.37-0.83,3.13,0.54,4.19c1.18,0.91,3.34,0.84,4.19-0.54c1.1-1.77,2.2-3.46,3.91-4.68
	c1.61-1.14,3.59-1.87,5.54-2.4c4.67-1.28,9.73-1.66,14.58-1.8c5.55-0.17,11.12-0.02,16.69,0.22c0.03,1.37,0.85,2.73,2.47,2.92
	c7.67,0.87,15.45,1.73,23.19,1.47c0.6,0.23,1.3,0.27,2.07-0.01c0.1-0.04,0.2-0.07,0.31-0.11c1.86-0.12,3.71-0.31,5.56-0.59
	c5.01-0.76,9.94-2,15-2.41c0.27-0.02,0.53-0.03,0.8-0.05c-0.87,0.12-1.74,0.34-2.6,0.69c-0.16-0.04-0.32-0.08-0.48-0.12
	c-0.72-0.15-1.74,0.22-2.13,0.86c-0.09,0.15-0.18,0.3-0.27,0.45c-0.88,1.75,1.15,3.23,2.34,3.97c0.69,0.43,1.41,0.76,2.17,1.07
	c1.31,0.53,2.66,1.03,3.92,1.69c2.03,1.06,3.68,2.65,5.04,4.47c3.1,4.13,4.79,9.42,5.66,14.52c2.01,11.8-0.48,23.43-4.06,34.66
	c-1.05,3.3-1.89,6.66-3.06,9.92c-1.2,3.34-2.57,6.58-3.55,9.99c-0.23,0.79-0.07,1.59,0.68,2.03c0.63,0.37,1.69,0.3,2.11-0.4
	c1.68-2.85,3.02-5.79,4.42-8.79c1.38-2.97,3.01-5.88,4.19-8.94c1.66-4.29,3.02-8.73,4.03-13.23c2.94-3.01,4.18-7.84,4.89-11.86
	c0.73-4.14,0.75-8.51,0.19-12.67c-0.2-1.45-0.49-2.9-0.82-4.33c1.12-3.3-0.02-6.54-1.81-9.39c-1.84-2.91-4.06-5.72-6.45-8.19
	c-0.89-0.92-1.89-1.81-2.96-2.63c-1.4-1.32-2.9-2.5-4.6-3.49c-0.29-0.17-0.59-0.33-0.89-0.48c2.75-0.01,5.5,0.05,8.24,0.05
	c1.77,0,3.52-0.04,5.27-0.14c0.18,0.77,0.71,1.45,1.47,1.78c4.84,2.06,8.25,6.26,10.27,11.02c1.13,5.51,1.84,11.1,2.21,16.72
	c-0.22,3.56-0.71,7.11-1.18,10.52c-1.19,8.63-2.73,17.22-4.6,25.73c-1.79,8.12-3.74,16.28-6.33,24.18
	c-1.04,3.19-2.34,6.44-4.14,9.03c-1,1.45-1.88,2.45-3.09,3.38c-0.29,0.23-0.6,0.44-0.91,0.64c-0.03,0.02-0.18,0.11-0.24,0.15
	c-0.15,0.08-0.3,0.16-0.45,0.23c-0.34,0.16-0.68,0.31-1.04,0.44c-0.58,0.21-0.64,0.22-0.96,0.29c-1.45,0.32-2.62,1.34-2.62,2.92
	c0,1.51,1.03,2.73,2.53,3c5.74,1.05,11.38-0.98,15.85-4.51c1.13,0.23,2.35-0.18,2.9-1.57c0.27-0.69,0.56-1.38,0.85-2.07
	c0.45-0.53,0.88-1.07,1.28-1.63c5.07-7.09,7.26-15.99,9.37-24.31c1.89-7.44,3.32-15.07,4.05-22.75c0.84-2.56,1.53-5.16,2.06-7.8
	c1.15-3.93,2.02-7.93,2.39-12.01c0.03-0.37,0.06-0.73,0.08-1.1c1.26-1.95,1.09-4.48,1.11-6.7
	C725.61,217.62,725.18,212.92,723.49,208.56z"/>
<path class="st0" d="M607.37,299.05c-4.21-0.22-7.82-2.02-10.49-5.3c-2.74-3.37-4.43-7.45-6.22-11.37
	c-4.01-8.81-7.6-17.79-10.68-26.97c-1.74-5.18-3.14-10.56-5.25-15.6c-0.34-0.8-1.58-0.5-1.49,0.38c0.54,5.06,2.08,10.13,3.52,15
	c1.48,4.98,3.09,9.93,4.82,14.83c1.73,4.9,3.57,9.76,5.56,14.55c1.8,4.33,3.66,8.92,6.8,12.48c3.38,3.84,8.59,6.82,13.8,5.2
	C609.3,301.76,609,299.14,607.37,299.05z"/>
<path class="st0" d="M304.25,202.92c-0.76-2-4.18-1.75-4.31,0.52c-0.18,2.95,0.03,5.89,0.06,8.84c0,0,0,0,0,0.01
	c-1.61,8.3-3.05,16.59-5.29,24.75c-2.26,8.2-5.54,15.99-8.32,24.01c-0.05,0.16-0.05,0.31-0.02,0.46c-1.25,2.18-2.68,4.24-4.44,6.02
	c-4.4,4.44-10.69,5.38-16.43,7.14c-1.05,0.32-1.57,1.63-1.3,2.61c0.31,1.14,1.25,1.68,2.39,1.67c4.71-0.04,9.43-0.81,13.61-2.91
	c0.31,0.37,0.8,0.58,1.38,0.36c2.34-0.9,4.3-2.4,6-4.23c0.77-0.83,1.49-1.72,2.14-2.65c0.68-0.98,1.37-2.11,1.71-3.26
	c0.14-0.46,0.07-0.93-0.26-1.26c0.94-1.59,1.8-3.22,2.59-4.87c5.41-11.22,9.69-23.35,11.39-35.72c0.49-3.57,0.72-7.15,0.69-10.75
	C305.8,210.02,305.54,206.34,304.25,202.92z"/>
<path class="st0" d="M281.79,182.72c-2.56-3.99-6.33-6.72-9.98-9.62c-0.65-0.51-1.65,0.41-1.05,1.05c2.65,2.83,5.19,5.87,7.28,9.14
	c2.22,3.48,3.36,7.35,3.67,11.45c0.34,4.32,0.22,8.69,0.02,13.02c-0.21,4.61-0.53,9.22-1.17,13.8c-0.36,2.56-0.66,5.13-1.15,7.68
	c-0.5,2.62-1.18,5.21-1.37,7.87c-0.05,0.65,0.84,0.94,1.12,0.31c0.96-2.14,1.45-4.42,1.96-6.71c0.53-2.37,1.12-4.74,1.55-7.12
	c0.87-4.77,1.64-9.57,2.16-14.39C285.77,200.36,286.82,190.57,281.79,182.72z"/>
<path class="st0" d="M154.35,215.81c-1.51-7.2-5.51-15.4-12.87-18.02c-0.49-0.17-0.94-0.19-1.35-0.1c-0.25-0.02-0.48,0.08-0.65,0.26
	c-1.2,0.73-1.62,2.54-0.27,3.73c1.17,1.04,2.25,2.12,3.25,3.25c1.17,2.6,2.1,5.3,2.64,8.1c1.06,5.46,0.87,11.05-0.03,16.51
	c-1.88,11.32-5.97,22.41-10.65,32.85c-1.87,4.16-3.93,8.24-6.09,12.27c-2.08,2.54-4.48,4.8-7.14,6.73
	c-0.29,0.21-0.59,0.39-0.89,0.58c-2.82,0.48-5.61,1.05-8.36,1.93c-1.16,0.37-1.76,1.8-1.46,2.91c0.08,0.31,0.21,0.58,0.38,0.82
	c-0.04,0.81,0.57,1.67,1.6,1.58c1.21-0.1,2.39-0.34,3.54-0.68c3.14-0.26,6.22-0.82,9.36-1.33c2.06-0.34,4.17-0.58,6.17-1.23
	c1.84-0.6,3.39-1.74,4.67-3.18c2.34-2.64,3.75-6.3,5.22-9.47c1.66-3.57,3.19-7.2,4.6-10.89c2.82-7.38,5.12-14.97,6.9-22.66
	C154.69,232,156.01,223.73,154.35,215.81z"/>
<path class="st0" d="M100.41,260.7c-0.95-1.75-1.68-3.6-2.57-5.4c-0.9-1.79-1.73-3.62-2.51-5.46c-1.52-3.62-2.48-7.5-3.35-11.32
	c-1.78-7.81-2.87-15.8-2.91-23.82c-0.01-2.14,0.06-4.28,0.21-6.41c0.07-1.07,0.17-2.14,0.28-3.21c0.13-1.27,0.47-2.63,0.19-3.89
	c-0.55-2.48-3.66-3.07-4.87-0.7c-0.93,1.82-0.77,4.38-0.87,6.38c-0.11,2.16-0.16,4.33-0.11,6.49c0.08,4.08,0.44,8.16,1.08,12.19
	c0.65,4.12,1.64,8.28,2.96,12.24c0.66,1.96,1.38,3.91,2.17,5.82c0.77,1.86,1.75,3.62,2.58,5.45c0.98,2.16,2,4.29,3.12,6.38
	c0.51,0.95,1.03,1.91,1.61,2.83c0.65,1.03,1.45,1.92,2.14,2.93C99.86,261.65,100.69,261.2,100.41,260.7z"/>
<path class="st0" d="M414.57,256.95c-1.19-1.89-2.12-3.87-3.19-5.81c-0.96-1.74-1.91-3.5-2.76-5.3c-1.76-3.71-3.08-7.74-4.3-11.65
	c-1.22-3.9-2.24-7.88-3-11.9c-0.37-1.96-0.67-3.94-0.91-5.93c-0.25-2.12-0.06-4.71-1.28-6.54c-0.92-1.37-2.94-0.87-3.58,0.45
	c-0.92,1.92-0.19,4.6,0.11,6.63c0.31,2.12,0.7,4.23,1.17,6.33c0.94,4.24,2.18,8.4,3.8,12.44c1.62,4.03,3.7,7.72,5.84,11.49
	c1.04,1.83,2.1,3.65,3.31,5.38c1.22,1.74,2.68,3.36,4.01,5C414.19,258.05,414.91,257.48,414.57,256.95z"/>
<path class="st0" d="M420.93,192.94c-1.84-0.19-3.78-0.25-5.57-0.72c-1.22-0.32-2.37-0.7-3.64-0.73c-1.22-0.03-2.38,0.15-3.53,0.57
	c-4.31,1.58-6.5,5.69-8.29,9.62c-0.61,1.34,0.01,2.96,1.24,3.68c1.19,0.69,3.01,0.51,3.82-0.72c0.34-0.51,0.7-1,1.1-1.46
	c0.09-0.11,0.19-0.21,0.29-0.31c0.03-0.02,0.05-0.04,0.08-0.08c0.2-0.17,0.39-0.35,0.59-0.51c0.41-0.34,0.85-0.63,1.3-0.92
	c0.04-0.01,0.45-0.26,0.55-0.3c0.27-0.14,0.55-0.26,0.84-0.38c0.24-0.1,0.49-0.19,0.74-0.28c0.09-0.03,0.69-0.2,0.72-0.22
	c0.52-0.11,1.04-0.21,1.57-0.26c0.26-0.03,0.52-0.04,0.78-0.05c0.1,0,0.2,0,0.3,0c0.03,0,0.1,0.01,0.24,0.01
	c0.61,0.07,1.21,0.15,1.81,0.25c1.18,0.19,2.39-0.45,2.98-1.45c0.34-0.58,0.44-1.16,0.38-1.74c0.85-0.31,1.66-0.75,2.39-1.4
	C422.48,194.75,422.25,193.07,420.93,192.94z"/>
<g>
	<path class="st0" d="M485.73,226.47c0.68-5.75,0.88-11.55,0.64-17.34c-0.07-1.81-1.51-2.63-2.96-2.55
		c-0.56-2.53-1.78-4.92-3.94-6.44c-0.06-0.04-0.13-0.08-0.2-0.13c0.08-0.51,0.03-1.05-0.12-1.62c-1.01-3.74-4.7-6.1-8.34-6.77
		c-2.11-0.39-4.26-0.12-6.31,0.46c-0.7,0.2-1.38,0.46-2.04,0.74c-0.38,0-0.75-0.01-1.13,0c-1.13,0.04-2.23,1.06-2.53,2.16
		c-0.58,0.37-0.86,1.2-0.78,1.85c0.04,0.33,0.14,0.69,0.36,0.95c0.02,0.02,0.03,0.04,0.05,0.06c0.41,0.5,1.17,0.96,1.85,0.79
		c0.09-0.02,0.2-0.04,0.32-0.05c1.86,0.99,3.72,1.98,5.58,2.97c0.89,0.48,1.78,0.96,2.68,1.43c0.15,0.08,0.31,0.16,0.46,0.24
		c0.08,0.18,0.17,0.35,0.3,0.51c0.95,1.24,2.52,1.26,3.75,0.5c0.03-0.02,0.22-0.11,0.6-0.13c0.01,0.01,0.4,0.04,0.46,0.05
		c0.12,0.03,0.16,0.03,0.15,0.02c0.06,0.02,0.12,0.04,0.21,0.08c0.91,0.33,1.43,0.66,1.96,1.37c1.28,1.71,1.2,4.55,1.04,6.75
		c-0.41,5.61-1.25,11.19-2.5,16.68c-2.43,10.73-6.53,21.08-11.96,30.64c-3.07,5.4-6.66,10.52-10.61,15.32
		c-0.75,0.91-0.79,2.31-0.21,3.3c0.65,1.1,1.67,1.51,2.92,1.5c0.64,0,1.28-0.06,1.9-0.15c-0.03,0.95,0.37,1.91,1.14,2.5
		c0.41,0.32,0.86,0.49,1.31,0.56c-0.21,1.07,0.1,2.18,1.05,2.91c1.22,0.94,3.29,0.81,4.19-0.54c4.65-6.9,8.55-14.29,11.64-22
		c0.66-0.46,1.13-1.21,1.37-2.06c0.59-2.09,1.12-4.2,1.63-6.31c1.6-5.07,5.9-8.47,6.79-13.72
		C487.49,236.8,485.22,230.76,485.73,226.47z"/>
	<path class="st0" d="M472.79,203.58c-0.04,0.01-0.08,0.03-0.12,0.04C472.74,203.6,472.77,203.59,472.79,203.58z"/>
</g>
<path class="st0" d="M132.36,315.41c-2.35,15.84-4.31,31.74-7.22,47.49c-1.45,7.83-3.09,15.62-5.02,23.36
	c-0.46,1.83-0.84,3.7-1.45,5.49c-0.38,1.13-0.94,2.62-2.03,3.32c-2.46,1.58-4.52-4.69-5.03-6.06c-2.64-7.05-2.84-14.71-3.1-22.12
	c-0.29-8.41-0.59-16.82-0.85-25.24c-0.26-8.36-0.31-16.76-1.13-25.09c-0.78-7.93-2.65-15.61-5.37-23.13
	c-1.68-4.62-3.6-9.16-5.54-13.69c0.92,0.64,1.86,1.24,2.83,1.84c3.09,1.89,6.29,3.4,9.82,4.37c7.3,2,15.15,1.65,22.28-0.82
	c3.02-1.05,5.81-2.49,8.19-4.45C136.09,292.17,134.09,303.77,132.36,315.41z"/>
<path class="st0" d="M284.73,282.71c-1.02,4-1.91,8.03-2.66,12.08c-1.51,8.14-2.54,16.35-3.41,24.57
	c-1.74,16.51-2.83,33.11-5.89,49.46c-1.5,7.99-3.26,16.65-7.62,23.77c-0.57-0.82-0.97-2.05-1.22-2.61c-0.86-1.9-1.56-3.87-2.12-5.87
	c-1.09-3.9-1.69-7.92-2.25-11.91c-1.23-8.63-2.19-17.28-3.21-25.93c-2.05-17.42-3.54-34.96-6.98-52.2
	c-0.97-4.84-2.05-9.66-3.39-14.42c-0.49-1.72-0.96-3.46-1.5-5.18c0.74,0.54,1.52,1.03,2.34,1.47c3.46,1.89,7.39,2.78,11.33,3.15
	c4.31,0.4,8.72,0.38,13.05,0.33c4.24-0.05,8.55-0.47,12.5-2.06c1.02-0.41,2.02-0.9,2.96-1.46
	C285.93,278.15,285.31,280.43,284.73,282.71z"/>
<path class="st0" d="M461.71,300.97c-2.49,17.2-5.06,34.37-8.18,51.47c-1.56,8.55-3.19,17.08-4.92,25.6
	c-0.72,3.53-1.13,7.33-2.53,10.68c-0.85,2.03-2.66,4.51-5.27,3.26c-2.66-1.28-3.95-4.52-4.91-7.02c-1.52-3.96-2.75-8.01-3.84-12.1
	c-2.25-8.37-4.27-16.81-6.39-25.21c-4.29-17.01-8.34-34.09-12.94-51.02c-1.75-6.44-4.01-12.73-6.35-18.98
	c1.53,0.59,3.17,0.94,4.7,1.09c5.21,0.5,10.09-1.14,15-2.57c2.67-0.78,5.37-1.45,8.17-1.54c2.25-0.08,4.51,0.25,6.7,0.72
	c4.85,1.03,9.48,2.88,14.27,4.16c3.88,1.03,7.73,1.5,11.56,0.9C464.12,287,462.73,293.94,461.71,300.97z"/>
<path class="st0" d="M665.33,333.6c-0.65,4.08-1.74,8.12-2.63,12.16c-1.92,8.72-3.66,17.47-5.39,26.22
	c-0.43,2.19-0.87,4.37-1.3,6.56c-0.39,1.96-0.62,4.04-1.21,5.95c-0.12,0.39-0.28,1.08-0.71,1.24c-0.68,0.26-1.64-0.81-1.98-1.24
	c-1.04-1.34-1.49-3.06-2-4.63c-2.64-8.17-4.8-16.5-6.57-24.88c-0.98-4.65-1.84-9.32-2.57-14.01c-0.38-2.42-0.73-4.85-1.04-7.28
	c-0.26-2.03-0.42-4.07-0.87-6.06c1.47-3.43,3.06-6.81,4.78-10.13c1.25-2.42,2.94-4.98,4.99-6.74c1.15-0.98,1.88-1.47,3.18-1.95
	c0.14-0.05,0.28-0.1,0.42-0.14c0.02,0,0.03-0.01,0.04-0.01c0.32-0.06,0.63-0.1,0.96-0.12c0.07,0,1.09,0.07,1.3,0.12
	c2.71,0.71,4.31,3.47,5.48,5.75c1.59,3.1,2.89,6.33,3.95,9.64c0.62,1.93,1.14,3.88,1.59,5.85
	C665.68,331.13,665.53,332.36,665.33,333.6z"/>
<path class="st0" d="M707.36,313.86c-0.21,7.75-0.17,15.51-0.56,23.25c-0.62,12.48-2.5,25-8.05,36.42
	c-2.53,5.2-5.83,10.06-10.08,14.19c-1.89,1.84-4.36,3.99-6.84,5.32c-0.12,0.07-0.65,0.25-0.66,0.25c-0.41-0.07-0.93-0.74-1.19-1.03
	c-0.96-1.08-1.6-2.12-2.16-3.37c-1.24-2.76-1.7-5.69-2-8.7c-0.34-3.39-0.49-6.81-0.64-10.22c-0.31-7.04-0.46-14.1-0.95-21.13
	c-0.48-6.79-1.28-13.59-2.92-20.22c-1.64-6.61-3.85-13.73-7.95-19.37c-1.97-2.71-4.86-4.91-8.36-5.35
	c-3.25-0.41-6.43,0.75-8.97,2.65c-5.38,4.02-8.18,10.42-10.85,16.23c-6.14,13.39-10.39,27.62-12.59,42.1
	c-0.55,3.6-0.97,7.21-1.26,10.84c-0.13,1.59-0.23,3.19-0.31,4.79c-0.04,0.83-0.05,1.66-0.1,2.48c-0.02,0.31-0.04,0.63-0.08,0.94
	c-0.02,0.14-0.21,1.06-0.13,0.83c-0.04,0.09-0.07,0.19-0.11,0.28c-0.01,0.03-0.02,0.04-0.03,0.06c0.04,0,0.08,0.02,0.14,0.05
	c0.04-0.01,0.07-0.01,0.11-0.02c-0.05,0.09-0.14,0.07-0.26,0.01c-0.04,0.08-0.06,0.13-0.07,0.15c-0.01-0.07-0.01-0.14,0.03-0.17
	c-0.03-0.02-0.05-0.02-0.09-0.05c-0.25-0.09-0.52-0.2-0.77-0.3c-1.48-0.59-2.82-1.37-4.1-2.29c-2.57-1.85-4.7-4.15-6.65-6.59
	c-8.42-10.55-13.52-23.31-15.03-36.48c-0.77-6.72-0.31-13.38,0.12-20.11c0.33-5.14,0.47-10.32-0.4-15.38
	c4.87,2.45,10.94,3.13,16.07,3.02c5.58-0.12,11.18-1.25,16.44-3.1c4.98-1.75,9.5-4.54,14.48-6.28c10.35-3.61,20.66,1.61,29.92,5.88
	c9.3,4.28,19.29,7.92,29.56,5.05c2.91-0.81,5.51-2.25,7.74-4.15C707.56,307.52,707.45,310.69,707.36,313.86z"/>
<path class="st1" d="M136.54,281.56c-1,0.61-2.09,1.06-3.13,1.6c-0.52,0.27-1.03,0.57-1.51,0.91c-0.05,0.04-0.12,0.09-0.14,0.12
	c-0.1,0.09-0.19,0.19-0.28,0.28c-0.01,0.01-0.01,0.01-0.02,0.02c-0.01,0.02-0.02,0.03-0.03,0.05c-0.33,1.69-0.63,3.38-0.9,5.08
	c-0.56,3.6-1.14,7.21-1.7,10.81c-1.11,7.21-2.21,14.43-3.32,21.64c-2.23,14.42-4.49,28.84-6.78,43.26
	c-0.65,4.09-3.18,25.69-2.92,26.02c-0.25,1.31-0.46,2.63-0.6,3.97c-0.24,2.3,3.07,3.38,3.98,1.12c1.48-3.64,2.37-7.49,3.27-11.31
	c0.89-3.79,1.75-7.58,2.57-11.38c1.62-7.44,3.13-14.91,4.52-22.4c2.82-15.14,5.15-30.36,6.93-45.66c0.5-4.35,0.88-8.71,1.24-13.08
	c0.33-4.04,3.71-8.8,3.45-12.84C140.65,280.16,137.1,281.22,136.54,281.56z"/>
<path class="st1" d="M288.9,275.14c-0.14-1.26-1.63-1.48-2.41-0.67c-2.85,3-4,7.6-5.04,11.51c-1.07,4.02-1.94,8.08-2.66,12.18
	c-1.47,8.3-2.43,16.68-3.22,25.06c-1.57,16.58-2.36,33.33-5.33,49.74c-0.7,3.87-1.59,7.7-3,11.38c-1.37,3.55-3.38,6.57-5.42,9.73
	c1.64,0.85,3.06,2.07,4.5,3.16c2.39-2.25,4.05-5.19,5.41-8.16c1.59-3.46,2.67-7.15,3.52-10.86c1.82-7.92,2.7-16.1,3.53-24.17
	c1.74-16.97,2.55-34.04,5.2-50.91c0.73-4.64,1.61-9.25,2.62-13.84c0.51-2.32,1.05-4.64,1.56-6.97
	C288.68,279.95,289.17,277.57,288.9,275.14z"/>
<path class="st1" d="M466.74,280.73c-0.51-0.14-1.11-0.1-1.66,0.09c-0.03-0.12-0.05-0.25-0.08-0.38c-0.31-1.19-1.99-1.19-2.64-0.37
	c-1.16,1.47-1.75,3.44-2.29,5.23c-0.6,1.96-1.06,3.94-1.5,5.94c-0.84,3.86-1.51,7.75-2.19,11.64c-1.35,7.61-2.58,15.24-3.67,22.89
	c-1.09,7.65-2.06,15.32-2.91,23.01c-0.79,7.22-1.28,14.49-2.3,21.69c-0.12,0.88-0.26,1.76-0.41,2.63c-0.48,1.69-0.98,3.38-1.52,5.06
	c-1.03,3.19-2.55,6.39-3.3,9.68c-0.5,1-1,1.99-1.5,3.01c-0.59,1.22,0.02,2.8,1.15,3.44c1.25,0.71,2.59,0.36,3.54-0.68
	c2.28-2.48,3.7-5.8,4.83-8.96c1.16-3.24,1.98-6.61,2.59-10c0.04-0.21,0.07-0.43,0.11-0.64c0.24-0.85,0.48-1.7,0.71-2.55
	c1.77-6.73,3.15-13.55,4.37-20.4c2.52-14.16,4.65-28.4,6.94-42.6c0.66-4.13,1.3-8.26,1.95-12.4c0.65-4.12,1.51-8.27,1.67-12.44
	C468.68,282.32,468.09,281.08,466.74,280.73z"/>
<path class="st1" d="M708.75,315.06c-0.17-1.92,0.93-10.31,0.59-12.21c-0.37-2.07-2.01,2.26-3.41,0.61
	c-0.79-0.93-2.23-0.78-2.75,0.35c-0.75,1.62-0.67,3.21-0.6,4.97c0.07,1.76,0.11,3.53,0.25,5.28c0.27,3.35,0.43,6.7,0.53,10.06
	c0.19,6.67-0.1,13.36-0.99,19.98c-1.55,11.39-4.97,22.66-10.89,32.56c-1.66,2.78-3.51,5.44-5.53,7.96c-1.99,2.48-4.54,4.7-6.17,7.44
	c-0.56,0.94-0.72,2.04-0.01,2.97c0.61,0.8,1.9,1.25,2.85,0.78c2.84-1.42,5.01-3.89,7.03-6.29c1.91-2.27,3.66-4.66,5.27-7.15
	c3.29-5.11,6.02-10.57,8.13-16.26c4.66-12.58,6.37-25.96,6.29-39.33C709.31,322.87,709.1,318.96,708.75,315.06z"/>
<path class="st1" d="M667.06,329.88c-0.21-2.96-0.79-5.87-1.58-8.73c-0.81-2.93-2.29-5.7-3.82-8.32c-0.8-1.36-2.4-1.14-3.38-0.24
	c-0.38-0.79-0.76-1.57-1.17-2.34c-0.67-1.27-1.89-2.1-3.35-1.78c-0.2-0.48-0.5-0.91-0.9-1.22c-1.35-1.04-3.12-0.68-4.19,0.54
	c-0.68,0.77-1.33,1.57-1.96,2.39c0.06-0.12,0.12-0.24,0.19-0.36c0.82-1.26-0.79-2.45-1.82-1.4c-0.54,0.55-1.17,0.8-1.76,1.26
	c-0.45,0.35-0.83,0.84-1.23,1.25c-0.98,1.02-1.93,2.06-2.79,3.19c-1.58,2.08-3.03,4.23-4.38,6.47c-2.76,4.56-5.12,9.32-7.08,14.28
	c-4,10.13-6.02,20.75-6.83,31.58c-0.24,3.25-0.46,6.51-0.86,9.75c-0.4,3.22-1.19,6.36-1.66,9.56c-0.46,3.1,3.84,4.17,5.15,1.44
	c1.28-2.68,1.78-5.62,2.2-8.54c0.41-2.84,0.65-5.7,0.86-8.57c0.4-5.42,0.82-10.81,1.82-16.16c1.88-10.06,5.42-19.66,10.04-28.77
	c0.35-0.7,0.74-1.38,1.11-2.08c-0.29,0.8-0.56,1.62-0.81,2.44c-0.25,0.41-0.39,0.87-0.39,1.35c-0.21,0.77-0.41,1.53-0.58,2.31
	c-0.27,1.24,0.53,2.52,1.62,3.08c0.07,0.35,0.14,0.71,0.22,1.06c-0.84,0.57-1.38,1.49-1.12,2.66c2.54,11.15,5.34,22.24,8.37,33.26
	c0.47,2.13,0.95,4.26,1.39,6.4c0.14,0.67,0.46,1.27,0.89,1.73c0.78,2.72,1.55,5.44,2.36,8.15c0.83,2.76,5.65,2.24,5.73-0.69
	c0.06-2.3,0.16-4.6,0.27-6.89c0.32-0.37,0.56-0.84,0.66-1.44c1.64-9.22,4.32-18.27,5.56-27.53c0.4-0.29,0.72-0.68,0.89-1.18
	C666.69,342,667.48,335.96,667.06,329.88z"/>
<path d="M158.11,212.05c-1.9-6.87-6.66-12.11-13.36-15.1c-1.61-0.72-3.27-1.3-4.95-1.83c-0.77-0.24-1.56-0.42-2.35-0.58
	c-1.41-0.63-2.81-1.27-4.33-1.69c-1.97-0.54-3.95-0.98-5.98-1.28c-4.02-0.59-8.13-0.69-12.19-0.46c-8.18,0.48-16.24,2.41-23.96,4.96
	c-3.62,1.19-7.25,2.58-9.96,5.27c-2.62,2.6-3.74,6.23-4.14,9.74c-0.44,3.93-0.29,7.97-0.13,11.91c0.17,4.21,0.53,8.41,1.09,12.59
	c1.11,8.32,2.98,16.56,5.54,24.58c2.49,7.78,5.84,15.26,9.09,22.76c3.22,7.44,6.4,14.97,8.3,22.84c2.02,8.36,2.55,16.95,2.91,25.51
	c0.37,8.79,0.71,17.57,1.04,26.36c0.3,8.2,0.18,16.57,1.61,24.68c0.68,3.83,1.74,7.65,3.5,11.17c1.45,2.9,3.97,6.46,7.89,5.17
	c3.21-1.05,4.42-4.61,5.16-7.45c1.07-4.07,2.04-8.16,2.94-12.27c3.55-16.32,5.95-32.84,8.58-49.31c2.64-16.52,5.34-33.07,9.24-49.37
	c1.94-8.1,4.25-16.09,6.94-23.99c2.73-8.01,5.74-15.98,7.52-24.25C159.51,225.45,159.92,218.57,158.11,212.05z M132.65,315.48
	c-2.35,15.84-4.31,31.74-7.22,47.49c-1.45,7.83-3.09,15.62-5.02,23.36c-0.46,1.83-0.84,3.7-1.45,5.49
	c-0.38,1.13-0.94,2.62-2.03,3.32c-2.46,1.58-4.52-4.69-5.03-6.06c-2.64-7.05-2.84-14.71-3.1-22.12c-0.29-8.41-0.59-16.82-0.85-25.24
	c-0.26-8.36-0.31-16.76-1.13-25.09c-0.78-7.93-2.65-15.61-5.37-23.13c-1.68-4.62-3.6-9.16-5.54-13.69c0.92,0.64,1.86,1.24,2.83,1.83
	c3.09,1.89,6.29,3.4,9.82,4.37c7.3,2,15.15,1.65,22.28-0.82c3.02-1.05,5.81-2.49,8.19-4.45
	C136.38,292.24,134.37,303.84,132.65,315.48z M154.59,223.93c-0.5,7.29-2.68,14.41-4.95,21.34c-2.51,7.67-5.22,15.27-7.4,23.03
	c-0.94,3.34-1.8,6.7-2.61,10.07c-5.78,3.08-11.79,5.71-18.48,6.25c-6.89,0.56-13.67-1.07-19.7-4.24c-1.64-0.86-3.13-1.93-4.57-3.07
	c-1.16-0.92-2.18-2.14-3.35-3.09c-0.34-0.79-0.67-1.58-1-2.38c-3.05-7.35-5.68-14.84-7.54-22.55c-1.87-7.77-3.07-15.68-3.58-23.64
	c-0.24-3.82-0.39-7.67-0.23-11.5c0.13-3.14,0.47-6.59,2.52-9.18c1.5-1.89,3.72-3.02,6.01-3.89c-1.17,1.55-1.75,3.66-2.07,5.43
	c-0.48,2.62-0.42,5.35-0.14,7.98c0.69,6.46,2.07,12.83,3.34,19.2c0.05,0.24,0.41,0.2,0.4-0.04c-0.18-3.15-0.24-6.29-0.58-9.43
	c-0.31-2.94-0.59-5.88-0.84-8.83c-0.21-2.48-0.35-4.98-0.01-7.46c0.17-1.23,0.45-2.44,0.92-3.59c0.49-1.18,1.27-2.2,1.78-3.37
	c0.14-0.31,0.08-0.61-0.07-0.85c0.01,0,0.02-0.01,0.03-0.01c3.62-1.21,7.31-2.28,11.05-3.09c7.52-1.63,15.34-2.41,23-1.29
	c1.74,0.25,3.47,0.59,5.17,1.05c1.27,0.35,2.59,0.66,3.86,1.06c0.47,0.41,0.95,0.81,1.36,1.25c1.16,1.25,2.09,2.62,2.78,4.16
	c1.6,3.57,1.87,7.6,1.66,11.44c-0.22,4.14-1.04,8.25-1.76,12.33c-0.73,4.14-1.49,8.27-2.36,12.38c-0.99,4.7-2.43,9.4-2.72,14.18
	c-0.02,0.3,0.4,0.44,0.54,0.14c1.89-4,2.69-8.42,3.6-12.72c0.92-4.34,1.77-8.69,2.49-13.07c0.73-4.4,1.42-8.83,1.78-13.27
	c0.31-3.85,0.17-7.76-1.1-11.46c-0.44-1.27-1-2.5-1.66-3.68c1.05,0.39,2.09,0.81,3.1,1.29c3.03,1.44,5.66,3.45,7.59,6.12
	C154.36,211.84,154.98,218.17,154.59,223.93z"/>
<path d="M96.52,251.61c-0.87-2.11-1.53-4.28-2.23-6.45c-0.35-1.08-0.64-2.17-1.03-3.23c-0.41-1.11-0.75-2.22-1.03-3.37
	c-0.08-0.33-0.59-0.29-0.56,0.06c0.1,1.2,0.22,2.41,0.36,3.61c0.13,1.11,0.45,2.17,0.78,3.24c0.7,2.25,1.79,4.37,2.95,6.43
	C96.01,252.33,96.72,252.09,96.52,251.61z"/>
<path d="M307.16,204.72c-1.68-4.13-5.51-6.85-8.89-9.67c-3.61-3.02-7.22-6.06-10.57-9.35c-3.13-3.07-5.78-6.5-8.81-9.65
	c-2.92-3.04-6.56-5.9-11.07-6.08c-1.92-0.07-3.92,0.18-5.6,1.12c-1.31,0.73-2.39,2.18-2.97,3.56c-4.57,4.92-9.06,9.93-14.35,14.17
	c-2.88,2.31-5.91,4.47-8.97,6.54c-3.05,2.07-6.22,3.93-8.84,6.51c-5.47,5.41-5.85,13.37-4.83,20.43c1.15,7.91,3.96,15.61,6.64,23.14
	c2.98,8.36,6.26,16.57,10.43,24.46c1.25,7.42,3.28,14.71,4.7,22.11c1.68,8.76,2.99,17.59,4.07,26.44
	c2.16,17.67,3.34,35.46,6.25,53.04c0.7,4.23,1.47,8.45,2.6,12.6c1.06,3.89,2.4,8.3,4.9,11.6c1.16,1.53,3.55,3.06,5.54,1.94
	c1.01-0.57,1.39-1.83,1.88-2.8c0.49-0.96,0.98-1.92,1.42-2.91c1.74-3.85,3.11-7.82,4.21-11.88c2.25-8.28,3.53-16.82,4.63-25.3
	c1.11-8.61,1.91-17.26,2.75-25.9c1.66-17.03,3.45-34.26,8.5-50.73c0.53-1.72,1.05-3.44,1.54-5.17c4.22-8.47,7.33-17.52,10.08-26.51
	c2.78-9.1,5.67-18.56,6.28-28.07C308.96,213.9,308.89,208.97,307.16,204.72z M285.02,282.78c-1.02,4-1.91,8.03-2.66,12.08
	c-1.51,8.14-2.54,16.35-3.41,24.57c-1.74,16.51-2.83,33.11-5.89,49.46c-1.5,7.99-3.26,16.65-7.62,23.77
	c-0.57-0.82-0.97-2.05-1.22-2.61c-0.86-1.9-1.56-3.87-2.12-5.87c-1.09-3.9-1.69-7.92-2.25-11.91c-1.23-8.63-2.19-17.28-3.21-25.93
	c-2.05-17.42-3.54-34.96-6.98-52.2c-0.97-4.84-2.05-9.66-3.39-14.42c-0.49-1.72-0.96-3.46-1.5-5.18c0.74,0.54,1.52,1.03,2.34,1.47
	c3.46,1.89,7.39,2.78,11.33,3.15c4.31,0.4,8.72,0.38,13.05,0.33c4.24-0.05,8.55-0.47,12.5-2.06c1.02-0.41,2.02-0.9,2.96-1.46
	C286.21,278.22,285.6,280.5,285.02,282.78z M304.6,217.82c-0.34,4.46-1.28,8.86-2.36,13.21c-1.04,4.2-2.12,8.38-3.35,12.53
	c-2.41,8.13-5.37,16.06-8.28,24.02c-0.16,0.09-0.3,0.23-0.43,0.4c-1.78,2.38-4.2,4.45-6.98,5.69c-3.3,1.47-6.93,1.92-10.53,2.16
	c-3.94,0.26-7.95,0.37-11.9,0.2c-3.6-0.16-7.23-0.64-10.58-1.98c-0.85-0.34-1.66-0.74-2.45-1.18c-0.03-0.06-0.07-0.11-0.11-0.17
	c-2.72-3.33-5.35-6.78-7.74-10.36c-1.96-4.98-3.94-9.95-5.82-14.95c-2.04-5.42-4.13-10.92-5.73-16.5
	c3.84,7.44,8.93,14.45,12.39,22.02c0.37,0.81,1.55,0.31,1.3-0.5c-3.13-10.25-11.11-18.8-15.42-28.59
	c-1.21-6.24-1.64-13.62,2.85-18.69c2.3-2.59,5.49-4.4,8.29-6.43c1.39-1.01,2.74-2.06,4.06-3.15c-0.22,0.93-0.37,1.86-0.47,2.71
	c-0.45,3.97-0.11,7.99,0.86,11.86c1.07,4.23,2.81,8.22,4.41,12.28c1.71,4.34,3.41,8.68,5.25,12.97c0.24,0.55,1.08,0.21,0.89-0.34
	c-2.78-8.07-6.39-15.95-8.51-24.22c-0.95-3.69-1.49-7.51-0.75-11.28c0.33-1.7,0.98-3.33,1.73-4.9c0.73-1.53,1.79-2.89,2.51-4.42
	c5.01-4.8,9.86-9.79,13.51-15.63c1.88-1.3,4.67-1.57,6.86-1.18c3.53,0.64,6.16,3.07,8.4,5.62c2.23,2.54,4.38,5.11,6.71,7.55
	c0.66,1.08,1.29,2.18,1.71,3.36c0.7,1.94,0.63,4.03,0.57,6.05c-0.06,1.99,0.21,3.95,0.31,5.94c0.03,0.57,0.94,0.56,1.02,0.01
	c0.57-3.6,1.49-7.31,0.91-10.95c2.19,2.03,4.44,3.99,6.72,5.93c1.63,1.38,3.29,2.74,4.9,4.14c0.39,0.34,0.79,0.69,1.17,1.06
	c-0.01,0.03-0.02,0.05-0.02,0.08c-0.61,13.7-4.8,26.73-8.47,39.88c-0.22,0.79,1.15,1.15,1.43,0.38c4.63-12.56,8.81-25.86,8.06-39.31
	c0.62,0.7,1.16,1.45,1.56,2.28C304.88,209.15,304.9,213.8,304.6,217.82z"/>
<path d="M258.49,217.87c1.02-5.33,3.12-10.44,5.01-15.52c0.11-0.28-0.32-0.46-0.45-0.18c-2.46,5.15-4.68,10.34-5.51,15.99
	c-0.73,5-0.64,10.48,1.99,14.99c0.24,0.4,0.91,0.18,0.72-0.28C258.19,228.09,257.51,222.97,258.49,217.87z"/>
<path d="M489.92,218.85c-0.23-3.82-0.34-8.23-2.29-11.66c-0.92-1.63-2.21-2.8-3.69-3.69c-0.7-6.42-4.46-13.86-11.43-15.46
	c-3.27-0.75-6.56,0.31-9.57,1.48c-2.7,1.04-5.5,2.39-8.45,2.09c-5.54-3.58-11.53-6.74-18.48-5.66c-4,0.62-7.6,2.38-10.99,4.5
	c-0.12-0.08-0.26-0.12-0.44-0.1c-3.78,0.54-7.84,0.12-11.52-0.8c-3.39-0.84-6.94-1.75-10.17,0.07c-2.47,1.39-3.73,3.93-4.44,6.49
	c-0.69,2.5-1.01,5.18-1.02,7.8c-0.36,0.23-0.7,0.46-1.04,0.71c-1.93,1.23-3.62,2.77-4.9,4.75c-2.22,3.44-2.67,7.37-2.57,11.34
	c0.11,4.32,0.58,8.66,1.15,12.94c1.16,8.71,3.03,17.32,5.61,25.75c2.62,8.52,6.15,16.73,9.17,25.12c3,8.36,5.13,16.95,7.29,25.54
	l6.77,26.97c2.24,8.91,4.48,17.82,6.72,26.73c1.1,4.39,2.18,8.79,3.41,13.16c1.13,4.01,2.27,8.16,4.05,11.96
	c1.37,2.94,3.54,6.13,6.85,7.28c3.41,1.18,7.01-0.21,9.02-3.01c2.07-2.89,2.69-6.41,3.41-9.77c0.95-4.48,1.88-8.97,2.78-13.47
	c3.58-17.9,6.7-35.88,9.39-53.92c1.29-8.67,2.11-17.49,4.23-26.02c2.06-8.26,6.37-15.52,10.38-23.01
	C487.09,252.09,490.93,235.54,489.92,218.85z M461.47,193.1c2.85-0.94,5.74-2.4,8.81-2.42c3.24-0.02,5.84,2.07,7.51,4.57
	c1.36,2.04,1.94,4.34,2.56,6.64c-0.89-0.29-1.81-0.53-2.73-0.75c-4.17-0.96-8.43-1.66-12.4-3.25c-2.59-1.04-4.93-2.48-7.23-3.99
	C459.16,193.76,460.33,193.48,461.47,193.1z M401.62,197.21c0.5-2.14,1.52-4.53,3.88-5.28c3.01-0.96,6.55,0.63,9.55,1.01
	c2.38,0.3,4.65,0.09,6.89-0.45c-1.43,0.99-2.84,2.01-4.23,2.99c-1.3,0.91-2.58,1.84-3.89,2.75c-1.85,0.63-3.76,1.11-5.62,1.59
	c-2.49,0.64-4.99,1.32-7.34,2.31C401.07,200.48,401.24,198.83,401.62,197.21z M462,301.04c-2.49,17.2-5.06,34.37-8.18,51.47
	c-1.56,8.55-3.19,17.08-4.92,25.6c-0.72,3.53-1.13,7.33-2.53,10.68c-0.85,2.03-2.66,4.51-5.27,3.26c-2.66-1.28-3.95-4.52-4.91-7.02
	c-1.52-3.96-2.75-8.01-3.84-12.1c-2.25-8.37-4.27-16.81-6.39-25.21c-4.29-17.01-8.34-34.09-12.94-51.02
	c-1.75-6.44-4.01-12.73-6.35-18.98c1.53,0.59,3.17,0.94,4.7,1.09c5.21,0.5,10.09-1.14,15-2.57c2.67-0.78,5.37-1.45,8.17-1.54
	c2.25-0.08,4.51,0.25,6.7,0.72c4.85,1.03,9.48,2.88,14.27,4.16c3.88,1.03,7.73,1.5,11.56,0.9C464.41,287.07,463.02,294,462,301.04z
	 M484.94,232.95c-0.81,7.8-2.69,15.48-5.63,22.8c-3,7.47-7.41,14.26-10.87,21.53c-0.1,0.22-0.19,0.45-0.29,0.67
	c-3.61,0.12-7.26-0.7-10.68-1.68c-4.5-1.29-8.85-3-13.38-4.19c-4.64-1.22-9.4-1.72-14.15-0.77c-5.01,1-9.78,3.26-14.91,3.7
	c-2.13,0.18-4.37,0.05-6.4-0.65c-1.77-0.61-3.11-1.65-4.34-2.94c-2.83-7.6-5.56-15.23-7.39-23.14c-1.9-8.18-3.1-16.49-3.59-24.86
	c-0.21-3.63-0.42-7.51,1.31-10.87c0.66-1.27,1.62-2.36,2.74-3.27c-0.24,1.29-0.24,2.64-0.1,3.76c0.5,3.88,1.23,7.7,2.24,11.49
	c2.08,7.77,5.33,15.08,10.06,21.71c0.23,0.33,0.85,0.01,0.65-0.35c-3.6-6.23-6.59-12.94-8.44-19.84c-0.93-3.46-1.52-6.96-1.89-10.52
	c-0.18-1.76-0.38-3.62-0.03-5.37c0.17-0.83,0.54-1.52,1.05-2.13c1.93-0.45,3.85-1.14,5.61-1.74c3.23-1.1,6.35-2.39,9.34-4
	c2.78-1.51,5.39-3.21,7.9-5.1c2.2-1.66,4.16-3.56,6.17-5.42c2.08-0.97,4.29-1.72,6.55-2.01c3.24-0.41,6.36,0.26,9.28,1.61
	c5.84,2.7,10.51,7.22,16.31,10c1.95,5.83,1.5,12.51,0.47,18.36c-1.49,8.42-3.81,16.75-5.77,25.08c-1.18,5-2.4,9.99-3.32,15.05
	c-0.11,0.61,0.93,0.92,1.12,0.3c2.72-8.92,4.73-18.05,6.99-27.09c1.93-7.75,4.33-15.83,3.78-23.89c-0.14-2.09-0.55-4.18-1.24-6.16
	c-0.11-0.32-0.25-0.62-0.39-0.93c3.84,1.55,7.95,2.4,11.99,3.28c3.23,0.71,6.83,1.46,8.17,4.73c0.68,1.65,0.85,3.46,1.04,5.21
	c0.21,1.92,0.36,3.85,0.44,5.79C485.49,225.04,485.35,229,484.94,232.95z"/>
<g>
	<path d="M620.79,385.21c0.01,0.01,0.03,0.01,0.04,0.02c0.01-0.01,0.01-0.03,0.02-0.04C620.82,385.18,620.8,385.19,620.79,385.21z"
		/>
	<path d="M725.58,205.77c-0.23-0.39-0.48-0.78-0.73-1.16c-1.03-2.31-2.49-4.49-4-6.46c-1.33-1.73-2.81-3.29-4.48-4.73
		c-1.07-0.92-2.24-1.86-3.51-2.6c-1.57-1.49-3.37-2.61-5.48-3.33c-5.12-1.75-10.82-2.47-16.21-2.95c-5.7-0.5-11.46-0.53-17.16-0.03
		c-5.67,0.5-11.18,1.65-16.73,2.84c-5.4,1.16-10.79,2.05-16.35,1.69c-5.42-0.35-10.75-1.43-16.08-2.37
		c-10.03-1.77-20.41-2.78-29.97,1.39c-4.55,1.99-8.6,4.93-11.95,8.47c-1.7,1.79-3.07,3.84-4.26,5.97c-0.53,0.95-1.01,1.97-1.38,3
		c-0.43,0.02-0.86,0.24-0.99,0.65c-1.05,3.08-2.1,6.14-2.56,9.36c-0.01,0.1,0.01,0.19,0.01,0.29c-2.26,5.13-3.47,10.67-3.67,16.26
		c-0.38,10.8,2.32,21.36,5.83,31.54c1.95,5.67,4.13,11.27,6.2,16.9c1.01,2.74,1.97,5.49,2.84,8.27c0.09,0.29,0.18,0.57,0.27,0.86
		c1.45,2.05,2.46,4.44,3.07,6.83c0.32,1.26,0.54,2.58,0.65,3.91c0.04,0.04,0.07,0.08,0.1,0.12c0.42,3.48,0.36,7.04,0.18,10.58
		c-0.36,6.97-1.19,13.92-1.28,20.9c-0.17,14.12,3.99,28.09,11.43,40.25c3.48,5.68,7.74,11.49,13.43,15.33
		c2.77,1.87,7.08,4.47,10.54,2.93c3.45-1.53,3.69-5.24,3.83-8.41c0.64-14.64,3.38-29.22,8.21-43.13c0.25-0.73,0.53-1.44,0.79-2.16
		c0.26,1.76,0.52,3.52,0.81,5.28c0.77,4.61,1.68,9.2,2.7,13.77c2.05,9.14,4.61,18.16,7.56,27.07c1.07,3.24,3.39,8.14,7.85,7.37
		c2-0.35,3.14-2.06,3.65-3.81c0.64-2.21,0.97-4.53,1.43-6.78c1.93-9.52,3.85-19.05,5.67-28.59c0.65-3.42,1.34-6.86,1.89-10.31
		c0.2,1.61,0.37,3.21,0.52,4.82c0.66,7.09,0.85,14.21,1.12,21.32c0.25,6.65,0.14,13.65,1.84,20.14c0.86,3.27,2.19,6.49,4.57,9.04
		c1.33,1.43,2.94,2.73,5.01,2.96c2.1,0.23,3.91-0.71,5.59-1.81c5.25-3.43,9.74-7.99,13.26-13.05c7.16-10.31,10.84-22.57,12.4-34.78
		c1.96-15.34,0.87-30.86,2.09-46.25c0.12-1.46,0.25-2.92,0.39-4.38c1.67-5.81,2.65-11.82,3.84-17.72c1.41-6.92,2.81-13.85,4.2-20.78
		c1.37-6.85,2.75-13.7,4.12-20.55c1.17-5.81,2.38-11.65,2.53-17.58C729.33,216.5,728.53,210.77,725.58,205.77z M623.05,191.01
		c5.12,0.88,10.22,1.95,15.4,2.43c5.45,0.5,10.79,0.18,16.15-0.84c5.41-1.02,10.73-2.36,16.21-3.03c5.33-0.66,10.74-0.89,16.11-0.64
		c5.86,0.28,11.97,0.92,17.62,2.5c1.85,0.52,3.35,1.27,4.68,2.42c-10.74-3.15-22.21-1.19-33.06,0.97
		c-3.76,0.75-7.53,1.43-11.32,1.95c3.5-1.05,6.78-2.65,9.7-4.87c0.59-0.45-0.09-1.29-0.71-0.89c-4.24,2.75-9.39,4.03-14.45,4.55
		c-5.77,0.59-11.45-0.09-17.21-0.24c-0.43-0.01-0.73,0.18-0.9,0.44c-0.15-0.01-0.31-0.01-0.46-0.02c-2.17-0.11-4.34-0.29-6.5-0.6
		c-2.15-0.31-4.27-0.73-6.39-1.19c-0.62-0.13-1.23-0.26-1.84-0.39c-1.96-1.02-4.02-1.87-6.04-2.72c-0.39-0.16-0.77-0.33-1.16-0.49
		C620.28,190.55,621.67,190.78,623.05,191.01z M585.78,199.95c2.71-2.88,5.99-5.29,9.6-7.03c3.87-1.86,7.95-2.94,12.28-3.21
		c1.59-0.1,3.17-0.09,4.75-0.01c2.03,1.35,4.14,2.58,6.29,3.76c1.69,0.93,3.44,1.83,5.25,2.56c-1.52-0.23-3.05-0.44-4.59-0.64
		c-5.5-0.69-11.05-1.34-16.61-0.96c-7.14,0.5-13.6,3.22-18.84,7.58C584.53,201.31,585.14,200.62,585.78,199.95z M665.62,334.67
		c-0.65,4.08-1.74,8.12-2.63,12.16c-1.92,8.72-3.66,17.47-5.39,26.22c-0.43,2.19-0.87,4.37-1.3,6.56c-0.39,1.96-0.62,4.04-1.21,5.95
		c-0.12,0.39-0.28,1.08-0.71,1.24c-0.68,0.26-1.64-0.81-1.98-1.24c-1.04-1.34-1.49-3.06-2-4.63c-2.64-8.17-4.8-16.5-6.57-24.88
		c-0.98-4.65-1.84-9.32-2.57-14.01c-0.38-2.42-0.73-4.85-1.04-7.28c-0.26-2.03-0.42-4.07-0.87-6.06c1.47-3.43,3.06-6.81,4.78-10.13
		c1.25-2.42,2.94-4.98,4.99-6.74c1.15-0.98,1.88-1.47,3.18-1.95c0.14-0.05,0.28-0.1,0.42-0.14c0.02,0,0.03-0.01,0.04-0.01
		c0.32-0.06,0.63-0.1,0.96-0.12c0.07,0,1.09,0.07,1.3,0.12c2.71,0.71,4.31,3.47,5.48,5.75c1.59,3.1,2.89,6.33,3.95,9.64
		c0.62,1.93,1.14,3.88,1.59,5.85C665.97,332.2,665.82,333.43,665.62,334.67z M707.65,313.93c-0.21,7.75-0.17,15.51-0.56,23.25
		c-0.62,12.48-2.5,25-8.05,36.42c-2.53,5.2-5.83,10.06-10.08,14.19c-1.89,1.84-4.36,3.99-6.84,5.32c-0.12,0.07-0.65,0.25-0.66,0.25
		c-0.41-0.07-0.93-0.74-1.19-1.03c-0.96-1.08-1.6-2.12-2.16-3.37c-1.24-2.76-1.7-5.69-2-8.7c-0.34-3.39-0.49-6.81-0.64-10.22
		c-0.31-7.04-0.46-14.1-0.95-21.13c-0.48-6.79-1.28-13.59-2.92-20.22c-1.64-6.61-3.85-13.73-7.95-19.37
		c-1.97-2.71-4.86-4.91-8.36-5.35c-3.25-0.41-6.43,0.75-8.97,2.65c-5.38,4.02-8.18,10.42-10.85,16.23
		c-6.14,13.39-10.39,27.62-12.59,42.1c-0.55,3.6-0.97,7.21-1.26,10.84c-0.13,1.59-0.23,3.19-0.31,4.79
		c-0.04,0.83-0.05,1.66-0.1,2.48c-0.02,0.31-0.04,0.63-0.08,0.94c-0.02,0.14-0.21,1.06-0.13,0.83c-0.04,0.09-0.07,0.19-0.11,0.28
		c-0.01,0.03-0.02,0.04-0.03,0.06c0.04,0,0.08,0.02,0.14,0.05c0.04-0.01,0.07-0.01,0.11-0.02c-0.05,0.09-0.14,0.07-0.26,0.01
		c-0.04,0.08-0.06,0.13-0.07,0.15c-0.01-0.07-0.01-0.14,0.03-0.17c-0.03-0.02-0.05-0.02-0.09-0.05c-0.25-0.09-0.52-0.2-0.77-0.3
		c-1.48-0.59-2.82-1.37-4.1-2.29c-2.57-1.85-4.7-4.15-6.65-6.59c-8.42-10.55-13.52-23.31-15.03-36.48
		c-0.77-6.72-0.31-13.38,0.12-20.11c0.33-5.14,0.47-10.32-0.4-15.38c4.87,2.45,10.94,3.13,16.07,3.02
		c5.58-0.12,11.18-1.25,16.44-3.1c4.98-1.75,9.5-4.54,14.48-6.28c10.35-3.61,20.66,1.61,29.92,5.88c9.3,4.28,19.29,7.92,29.56,5.05
		c2.91-0.81,5.51-2.25,7.74-4.15C707.85,307.59,707.74,310.76,707.65,313.93z M722.33,235.72c-1.35,6.63-2.75,13.25-4.12,19.88
		c-1.55,7.46-3.09,14.93-4.62,22.4c-0.28,1.35-0.58,2.71-0.88,4.07c-0.18,0.19-0.33,0.41-0.43,0.68c-1.56,4.07-2.22,8.41-4.21,12.34
		c-1.8,3.54-4.7,6.12-8.34,7.46c-8.58,3.16-17.88-0.49-25.81-4.1c-9.29-4.24-19.26-9.18-29.8-7.58c-5.04,0.77-9.53,3.1-14.06,5.28
		c-4.63,2.23-9.43,3.92-14.52,4.74c-4.97,0.8-10.4,1.06-15.38-0.07c-0.98-0.64-1.96-1.27-2.93-1.97c-1.47-1.06-2.67-2.25-3.84-3.6
		c-1.01-1.17-1.97-2.47-2.8-3.85c-0.15-0.81-0.31-1.63-0.52-2.42c-0.68-2.52-1.46-5.02-2.29-7.51c-1.6-4.84-3.41-9.61-5.16-14.4
		c-3.5-9.58-6.68-19.38-7.29-29.57c-0.51-8.54,1.04-17.38,5.82-24.73c4.36-6.71,10.96-11.88,19.23-13.28
		c5.3-0.89,10.68-0.48,16-0.04c-1.41,0.5-2.79,1.06-4.13,1.68c-2.42,1.12-4.63,2.6-6.14,4.77c-1.41,2.02-2.21,4.37-2.61,6.76
		c-0.88,5.3,0.23,10.9,1.45,16.08c1.53,6.49,3.9,12.73,6.77,18.77c0.25,0.53,1.04,0.21,0.87-0.34c-3.1-10.15-7.73-20.54-6.49-31.35
		c0.52-4.53,1.81-8.87,6.3-11.15c4.6-2.33,10.01-3.36,15.15-3.79c2.91-0.24,5.86-0.32,8.77-0.14c0.71,0.04,1.41,0.11,2.12,0.18
		c0.27,0.05,0.54,0.1,0.82,0.15c1.92,0.3,3.85,0.53,5.79,0.69c0.19,0.02,0.37,0.05,0.56,0.07c0.14,0.02,0.28,0.02,0.42,0.01
		c1.06,0.08,2.11,0.15,3.17,0.2c6.85,0.31,13.75-0.16,20.51-1.23c12.13-1.92,24.68-5.73,36.95-2.64c4.67,1.17,9.27,3.46,12.42,7.03
		c3.54,4.02,4.89,9.09,5.11,14.25C724.43,224.89,723.42,230.37,722.33,235.72z"/>
</g>
<path d="M694.65,206.49c-1.56-1.88-3.36-3.55-5.42-4.93c-1.02-0.68-2.08-1.31-3.19-1.84c-1.27-0.61-2.52-0.86-3.87-1.25
	c-0.3-0.09-0.48,0.29-0.19,0.43c1,0.49,1.89,1.19,2.84,1.77c0.98,0.6,1.94,1.25,2.85,1.96c1.66,1.28,3.2,2.74,4.56,4.3
	c2.89,3.33,4.92,7.31,5.75,11.57c2.03,10.4-2.11,20.75-5.62,30.41c-2.2,6.05-3.84,12.26-5.9,18.36c-0.16,0.49,0.58,0.81,0.78,0.32
	c4.37-10.78,9.61-21.26,12.38-32.58C702.03,225.16,701.44,214.66,694.65,206.49z"/>
</svg>
